<svg data-v-fde0c5aa="" xmlns="http://www.w3.org/2000/svg" viewBox="0 0 300 300" class="iconLeft"><!----><defs data-v-fde0c5aa=""><!----></defs><rect data-v-fde0c5aa="" fill="transparent" x="0" y="0" width="300px" height="300px" class="logo-background-square"></rect><defs data-v-fde0c5aa=""><!----></defs><g data-v-fde0c5aa="" id="8b05d06a-ede4-433b-913a-15e9c6c8010e" fill="#000000" transform="matrix(2.2130751753541875,0,0,2.2130751753541875,94.705407705182,128.01309720421284)"><path d="M6.33 8.67C6.94 8.47 7.42 8.18 7.76 7.76C7.91 7.56 8.01 7.35 8.09 7.13C8.18 6.90 8.20 6.62 8.20 6.29C8.20 5.95 8.15 5.63 8.01 5.29C7.57 4.28 6.47 3.77 4.68 3.77L0.46 3.77L0.46 4.38C0.46 4.52 0.53 4.61 0.67 4.63C0.76 4.66 1.02 4.72 1.47 4.80L1.47 12.78L0.67 12.95C0.53 12.98 0.46 13.06 0.46 13.20L0.46 13.82L5.01 13.82C6.12 13.82 6.99 13.55 7.62 13.02C8.23 12.52 8.54 11.83 8.54 10.96C8.54 9.73 7.81 8.96 6.33 8.67ZM2.83 4.86L4.68 4.86C5.43 4.86 5.96 5.00 6.33 5.28C6.69 5.56 6.86 5.98 6.86 6.57C6.86 6.82 6.80 7.04 6.72 7.27C6.44 7.94 5.74 8.27 4.62 8.27L2.83 8.27ZM5.01 12.74L2.83 12.74L2.83 9.25L5.00 9.25C5.74 9.25 6.30 9.39 6.66 9.70C7.03 10.01 7.20 10.42 7.20 10.93C7.20 11.20 7.17 11.44 7.08 11.66C6.80 12.39 6.12 12.75 5.00 12.75ZM12.32 12.95C12.24 12.92 11.98 12.87 11.54 12.78L11.54 3.50L9.27 3.50L9.27 4.10C9.27 4.24 9.35 4.33 9.49 4.35C9.58 4.38 9.83 4.44 10.28 4.52L10.28 12.80L9.49 12.95C9.35 12.98 9.27 13.08 9.27 13.22L9.27 13.82L12.54 13.82L12.54 13.22C12.54 13.08 12.46 12.98 12.32 12.95ZM16.83 12.94C16.32 12.94 15.96 12.80 15.71 12.50C15.46 12.21 15.34 11.77 15.34 11.24L15.34 6.73L13.08 6.73L13.08 7.32C13.08 7.46 13.16 7.56 13.30 7.59C13.38 7.62 13.64 7.67 14.08 7.76L14.08 11.26C14.08 12.10 14.31 12.73 14.70 13.20C15.12 13.69 15.71 13.94 16.46 13.94C17.36 13.94 18.14 13.57 18.82 12.81L18.91 13.57C18.97 13.73 19.08 13.83 19.25 13.83L21 13.83L21 13.23C21 13.09 20.93 13.01 20.79 12.98C20.71 12.95 20.44 12.89 19.99 12.81L19.99 6.73L18.75 6.73L17.74 6.73L17.74 7.34C17.74 7.48 17.81 7.57 17.95 7.60C18.40 7.69 18.66 7.74 18.75 7.77L18.75 11.97C18.17 12.61 17.53 12.95 16.83 12.95ZM24.98 6.62C24.47 6.62 24.01 6.71 23.59 6.89C23.17 7.07 22.82 7.32 22.54 7.63C22.26 7.94 22.04 8.33 21.88 8.75C21.73 9.17 21.64 9.62 21.64 10.12C21.64 10.74 21.73 11.27 21.90 11.75C22.06 12.22 22.29 12.61 22.60 12.94C22.90 13.26 23.25 13.51 23.67 13.68C24.09 13.85 24.54 13.93 25.03 13.93C25.28 13.93 25.55 13.90 25.80 13.86C26.05 13.82 26.31 13.75 26.56 13.66C26.81 13.58 27.02 13.45 27.24 13.31C27.47 13.17 27.65 13.03 27.80 12.84L27.45 12.38C27.40 12.29 27.33 12.25 27.22 12.25C27.13 12.25 27.05 12.29 26.94 12.36C26.82 12.43 26.68 12.50 26.52 12.59C26.35 12.67 26.15 12.75 25.93 12.82C25.70 12.89 25.42 12.92 25.12 12.92C24.78 12.92 24.50 12.87 24.22 12.75C23.94 12.64 23.72 12.47 23.52 12.25C23.32 12.03 23.16 11.77 23.04 11.44C22.93 11.10 22.88 10.71 22.88 10.26L27.58 10.26C27.69 10.26 27.79 10.22 27.83 10.16C27.87 10.11 27.89 9.97 27.89 9.77C27.89 9.27 27.80 8.82 27.66 8.43C27.52 8.04 27.30 7.70 27.05 7.43C26.80 7.17 26.49 6.97 26.12 6.83C25.76 6.69 25.37 6.62 24.95 6.62ZM24.98 7.55C25.26 7.55 25.52 7.59 25.75 7.69C25.97 7.78 26.17 7.92 26.32 8.09C26.47 8.26 26.57 8.48 26.66 8.72C26.74 8.96 26.78 9.23 26.78 9.51L22.93 9.51C23.02 8.89 23.24 8.40 23.58 8.05C23.91 7.70 24.39 7.53 24.99 7.53ZM37.17 4.00C36.69 3.86 36.16 3.79 35.52 3.79L31.74 3.79L31.74 4.38C31.74 4.52 31.81 4.62 31.95 4.65C32.03 4.68 32.30 4.73 32.75 4.82L32.75 12.81L31.95 12.96C31.81 12.99 31.74 13.09 31.74 13.23L31.74 13.82L35.10 13.82L35.10 13.23C35.10 13.09 35.04 12.99 34.90 12.96C34.45 12.88 34.17 12.82 34.09 12.80L34.09 10.07L35.52 10.07C36.69 10.07 37.62 9.76 38.29 9.17C38.93 8.61 39.24 7.85 39.24 6.90C39.24 5.42 38.56 4.44 37.17 3.99ZM37.90 6.89C37.90 7.53 37.69 8.04 37.27 8.41C36.85 8.79 36.27 8.97 35.52 8.97L34.09 8.97L34.09 4.86L35.52 4.86C36.32 4.86 36.90 5.03 37.30 5.39C37.69 5.75 37.88 6.23 37.88 6.87ZM42.20 8.18L42.11 7.07C42.08 6.94 42.06 6.86 42 6.80C41.94 6.75 41.87 6.73 41.73 6.73L41.02 6.73L40.01 6.73L40.01 7.32C40.01 7.46 40.08 7.56 40.22 7.59C40.31 7.62 40.57 7.67 41.02 7.76L41.02 12.81L40.22 12.96C40.08 12.99 40.01 13.09 40.01 13.23L40.01 13.82L43.27 13.82L43.27 13.23C43.27 13.09 43.20 12.99 43.06 12.96C42.64 12.88 42.38 12.84 42.27 12.81L42.27 9.31C42.66 8.33 43.27 7.83 44.09 7.83C44.34 7.83 44.52 7.85 44.66 7.90C44.80 7.94 44.91 7.97 45.00 7.97C45.08 7.97 45.15 7.90 45.18 7.78L45.33 6.85C45.05 6.68 44.73 6.59 44.37 6.59C43.44 6.59 42.73 7.13 42.21 8.18ZM49.03 6.62C48.51 6.62 48.05 6.71 47.63 6.87C47.21 7.04 46.84 7.29 46.55 7.60C46.26 7.91 46.03 8.30 45.86 8.75C45.70 9.20 45.64 9.70 45.64 10.26C45.64 10.82 45.70 11.33 45.86 11.77C46.03 12.22 46.26 12.61 46.55 12.92C46.84 13.23 47.21 13.48 47.63 13.65C48.05 13.82 48.51 13.90 49.03 13.90C49.55 13.90 50.01 13.82 50.43 13.65C50.85 13.48 51.21 13.23 51.51 12.92C51.80 12.61 52.02 12.22 52.18 11.77C52.33 11.33 52.42 10.82 52.42 10.26C52.42 9.70 52.33 9.20 52.18 8.75C52.02 8.30 51.80 7.91 51.51 7.60C51.21 7.29 50.85 7.04 50.43 6.87C50.01 6.71 49.55 6.62 49.03 6.62ZM49.03 12.95C48.66 12.95 48.36 12.87 48.10 12.75C47.85 12.64 47.63 12.47 47.46 12.25C47.29 12.03 47.15 11.75 47.07 11.41C46.98 11.07 46.93 10.71 46.93 10.29C46.93 9.87 46.98 9.48 47.07 9.14C47.15 8.81 47.29 8.53 47.46 8.30C47.63 8.08 47.85 7.88 48.10 7.77C48.36 7.66 48.66 7.60 49.03 7.60C49.73 7.60 50.26 7.83 50.60 8.30C50.93 8.78 51.11 9.44 51.11 10.28C51.11 11.12 50.93 11.77 50.60 12.25C50.26 12.73 49.73 12.95 49.03 12.95ZM55.80 4.16C55.75 4.05 55.69 3.95 55.61 3.86C55.52 3.78 55.44 3.72 55.33 3.67C55.22 3.61 55.10 3.60 54.99 3.60C54.88 3.60 54.77 3.61 54.66 3.67C54.54 3.72 54.46 3.78 54.38 3.86C54.29 3.95 54.24 4.05 54.18 4.16C54.12 4.27 54.11 4.40 54.11 4.51C54.11 4.62 54.12 4.73 54.18 4.84C54.24 4.96 54.29 5.04 54.38 5.12C54.46 5.21 54.54 5.26 54.66 5.32C54.77 5.38 54.88 5.39 54.99 5.39C55.10 5.39 55.22 5.38 55.33 5.32C55.44 5.26 55.52 5.21 55.61 5.12C55.69 5.04 55.75 4.96 55.80 4.84C55.86 4.73 55.87 4.62 55.87 4.51C55.87 4.40 55.86 4.27 55.80 4.16ZM54.50 16.23C55.23 15.92 55.58 15.30 55.58 14.35L55.58 6.73L54.35 6.73L53.34 6.73L53.34 7.34C53.34 7.48 53.40 7.57 53.54 7.60C53.93 7.69 54.21 7.73 54.35 7.76L54.35 14.35C54.35 14.73 54.26 14.99 54.11 15.16C53.96 15.33 53.70 15.41 53.34 15.41L53.06 15.41C52.92 15.41 52.85 15.47 52.84 15.55L52.78 16.23C53.03 16.31 53.34 16.37 53.65 16.37C53.96 16.37 54.25 16.32 54.50 16.21ZM59.95 6.62C59.44 6.62 58.98 6.71 58.56 6.89C58.14 7.07 57.79 7.32 57.51 7.63C57.23 7.94 57.01 8.33 56.85 8.75C56.70 9.17 56.62 9.62 56.62 10.12C56.62 10.74 56.70 11.27 56.87 11.75C57.04 12.22 57.26 12.61 57.57 12.94C57.88 13.26 58.23 13.51 58.65 13.68C59.07 13.85 59.51 13.93 60.00 13.93C60.26 13.93 60.52 13.90 60.77 13.86C61.03 13.82 61.28 13.75 61.53 13.66C61.78 13.58 61.99 13.45 62.22 13.31C62.44 13.17 62.62 13.03 62.78 12.84L62.43 12.38C62.37 12.29 62.30 12.25 62.19 12.25C62.10 12.25 62.02 12.29 61.91 12.36C61.80 12.43 61.66 12.50 61.49 12.59C61.32 12.67 61.12 12.75 60.90 12.82C60.68 12.89 60.40 12.92 60.09 12.92C59.75 12.92 59.47 12.87 59.19 12.75C58.91 12.64 58.69 12.47 58.49 12.25C58.30 12.03 58.13 11.77 58.02 11.44C57.90 11.10 57.85 10.71 57.85 10.26L62.55 10.26C62.66 10.26 62.76 10.22 62.80 10.16C62.85 10.11 62.86 9.97 62.86 9.77C62.86 9.27 62.78 8.82 62.64 8.43C62.50 8.04 62.27 7.70 62.02 7.43C61.77 7.17 61.46 6.97 61.10 6.83C60.73 6.69 60.34 6.62 59.92 6.62ZM59.95 7.55C60.23 7.55 60.49 7.59 60.72 7.69C60.94 7.78 61.14 7.92 61.29 8.09C61.45 8.26 61.54 8.48 61.63 8.72C61.71 8.96 61.75 9.23 61.75 9.51L57.90 9.51C57.99 8.89 58.21 8.40 58.55 8.05C58.88 7.70 59.36 7.53 59.96 7.53ZM69.64 12.82L69.30 12.36C69.24 12.28 69.17 12.25 69.08 12.25C68.98 12.25 68.88 12.28 68.80 12.36C68.35 12.75 67.83 12.95 67.24 12.95C66.60 12.95 66.11 12.71 65.74 12.25C65.38 11.77 65.18 11.10 65.18 10.26C65.18 9.42 65.35 8.78 65.72 8.30C65.90 8.08 66.12 7.90 66.37 7.78C66.63 7.67 66.89 7.60 67.14 7.60C67.40 7.60 67.65 7.62 67.93 7.66C68.04 7.69 68.21 7.71 68.43 7.78C68.43 7.80 68.45 7.94 68.47 8.25C68.50 8.55 68.52 8.72 68.53 8.78C68.56 8.92 68.63 8.97 68.77 8.97L69.33 8.97L69.33 7.13C68.46 6.79 67.76 6.62 67.23 6.62C66.18 6.62 65.34 6.96 64.74 7.64C64.16 8.32 63.88 9.17 63.88 10.26C63.88 11.38 64.19 12.28 64.79 12.95C65.37 13.59 66.09 13.92 67.00 13.92C68.15 13.92 69.05 13.55 69.64 12.82ZM72.97 13.93C73.29 13.93 73.60 13.87 73.91 13.76C74.21 13.65 74.47 13.48 74.69 13.29L74.33 12.70C74.27 12.61 74.21 12.59 74.16 12.59C74.13 12.59 74.07 12.61 74.02 12.64C73.96 12.67 73.92 12.71 73.85 12.75C73.78 12.80 73.70 12.84 73.60 12.87C73.50 12.89 73.39 12.92 73.25 12.92C73.02 12.92 72.81 12.85 72.67 12.71C72.53 12.57 72.46 12.35 72.46 12.04L72.46 7.78L74.49 7.78L74.49 6.87L72.46 6.87L72.46 4.44L71.83 4.44C71.75 4.44 71.69 4.45 71.64 4.49C71.58 4.54 71.55 4.59 71.55 4.66L71.27 6.86L70.11 7.01L70.11 7.50C70.11 7.59 70.13 7.67 70.18 7.71C70.24 7.76 70.29 7.77 70.38 7.77L71.23 7.77L71.23 12.11C71.23 12.70 71.37 13.15 71.68 13.45C71.99 13.76 72.41 13.93 72.97 13.93Z"></path></g><defs data-v-fde0c5aa=""><linearGradient data-v-fde0c5aa="" gradientTransform="rotate(25)" id="f6d4e712-c2ad-4c8a-848c-8faa5ae38859" x1="0%" y1="0%" x2="100%" y2="0%"><stop data-v-fde0c5aa="" offset="0%" stop-color="#E90DDA" stop-opacity="1"></stop><stop data-v-fde0c5aa="" offset="100%" stop-color="#45ACFF" stop-opacity="1"></stop></linearGradient></defs><g data-v-fde0c5aa="" id="8d26e69a-3723-4834-9519-8f4ba756d4c5" stroke="none" fill="url(#f6d4e712-c2ad-4c8a-848c-8faa5ae38859)" transform="matrix(0.4270548282155351,0,0,0.4270548282155351,40.0123859323842,128.63829047692874)"><path d="M49.992 0C22.366 0-.029 22.395-.029 50.021c0 27.625 22.395 50.021 50.021 50.021s50.021-22.396 50.021-50.021C100.014 22.395 77.618 0 49.992 0zm0 94.389c-24.502 0-44.365-19.863-44.365-44.367 0-1.994.144-3.953.399-5.876l6.315 9.444h4.524v-5.68h5.396a4.015 4.015 0 0 0 4.015-4.015h4.6l4.812-4.812v-4.459l-4.76-4.76h-4.844v3.958H21.39a4.524 4.524 0 0 1-4.524-4.525 4.523 4.523 0 0 1 4.524-4.524v-4.638h-4.185c8.113-8.896 19.797-14.479 32.787-14.479 12.785 0 24.303 5.417 32.398 14.072l-8.084 4.944a7.994 7.994 0 0 0-14.373 4.816l3.41 1.226-.367 1.022-1.912-.579-3.168 2.188 2.037 4.146h1.732a3.413 3.413 0 0 1 3.414 3.413v4.505h3.439l5.217-2.609a2.609 2.609 0 0 1 2.609 2.609H68.52l8.221 10.935 6.539-6.539h3.311a2.487 2.487 0 0 1 2.488 2.487l-.028-.104a2.489 2.489 0 0 0 2.49 2.49v6.038l1.298.822C87.768 80.456 70.51 94.389 49.992 94.389z"></path><path d="M21.747 62.381a5.314 5.314 0 0 0 5.317 5.314v17.537l4.507 2.205V84.1l8.087-8.088V72.11a5.316 5.316 0 0 0 5.316-5.315l.018-3.787H40.28l-9.219-9.391-14.196-.027 4.864 5.005.018 3.786zM53.146 44.278a6.787 6.787 0 0 0 6.787-6.787h-6.787v6.787zM67.307 47.596H50.714a3.166 3.166 0 0 0-3.167 3.167v3.043a9.54 9.54 0 0 0 9.54 9.541h4.864V74.63l4.468 4.47h4.468v-4.922l4.524-4.523V61.53a2.999 2.999 0 0 0 2.998-3h-2.886l-8.216-10.934zM33.142 14.718l-3.469 5.278 1.968 3.017.042 4.738 4.761 4.761 2.85-6.546a8.382 8.382 0 0 0 8.383-8.381l-14.535-2.867zM72.695 76.385V79.1c1.5 0 2.716-1.218 2.716-2.715V73.67a2.716 2.716 0 0 0-2.716 2.715zM54.504 33.344h3.395V29.95a3.394 3.394 0 0 0-3.395 3.394z"></path></g><!----></svg>